<?xml version="1.0" standalone="no"?><!DOCTYPE svg PUBLIC "-//W3C//DTD SVG 1.1//EN" "http://www.w3.org/Graphics/SVG/1.1/DTD/svg11.dtd"><svg t="1756627266009" class="icon" viewBox="0 0 1024 1024" version="1.1" xmlns="http://www.w3.org/2000/svg" p-id="11130" width="256" height="256" xmlns:xlink="http://www.w3.org/1999/xlink"><path d="M813.8 754.4c39.6-110.8 51.6-235 54.6-317.6-47.8-83-121.6-101.4-164.4-104.6-59.8-41.2-231.2-134.4-424-19.8-240.4 142.8-167.6 427.6-115 514 21.8 36 59.2 74.2 93.8 106.2 28 25.6 60.6 46.4 96.4 61.4 240-17 378.6-123 458.6-239.6z m0 0" fill="#9CCE53" p-id="11131" data-spm-anchor-id="a313x.search_index.0.i23.2eca3a81ZaZJ5a" class=""></path><path d="M905.2 543.8c-0.6-3-1-6-1.6-8.8-3.2-17.6-7.8-35-14-51.8-5.6-16-12.6-31.6-21.2-46.4-1 26.6-3 57.6-6.4 91.4-25.2 244.2-229.2 440.8-489 464.8l-17.8 1.4c36.8 15.6 76.2 24.8 116.4 27.2 40.8 2.6 82 1.8 122.6-3l3.4-0.4 3-0.4c1.8 0 3.6-0.4 5.4-0.8l3-0.4 4.4-0.8 5.8-1.2h1c19.4-4 38.4-9.8 56.4-17.6 25.2-10.8 49.2-24.2 71-40 145.6-105.2 181.2-280.6 157.6-413.2z m0 0" fill="#97C14F" p-id="11132"></path><path d="M611.8 374.4s8.6-219.6 187.4-290.2l16.6 14.8s-162.4 71.8-172 275.4h-32z m0 0" fill="#5E9B18" p-id="11133"></path><path d="M700 331.6s177.8 219.4-66.4 517.2c-7.4 25 335.8-281.8 66.4-517.2z m0 0" fill="#9470db" p-id="11134" data-spm-anchor-id="a313x.search_index.0.i22.2eca3a81ZaZJ5a" class=""></path><path d="M299.4 711c93.2 30.4 203-37.2 245-151.2 42-113.8 0.6-230.8-92.8-261.4-93.2-30.4-203 37.2-245 151.2-42 114-0.4 231 92.8 261.4z m0 0" fill="#A6D845" p-id="11135"></path><path d="M251 404.8c0 16 9 30.8 23.8 38.8 14.8 8 32.8 8 47.6 0 14.8-8 23.8-22.8 23.8-38.8 0-16-9-30.8-23.8-38.8-14.8-8-32.8-8-47.6 0-14.6 8.2-23.8 22.8-23.8 38.8z m0 0" fill="#FFFFFF" p-id="11136"></path><path d="M209.8 492.8c-51.8 87.6-31.4 187.4-7.4 279.4 6.2 21.2 29.4 33.8 51.8 28.2 22.6-6 35.8-27.8 30-49.2-5.4-20.6-10.6-41.4-15-62.2-1.2-5.6-2.2-11-3.2-16.6l-1.4-8.2c-1.2-6.2 1.2 9.6 0-1.2-1.2-10.8-2.2-21-2.6-31.2-0.4-10.2 0-19.4 0.4-29 0.4-4.6 1-9 1.4-13.6 0.4-4.6-1.4 7.6 0 0 0.6-2.6 0.8-5 1.4-7.6 2-9.6 4.6-19 8-28.2 0.8-2.4 1.8-4.8 2.8-7 1.8-5.4-4.4 8.6 0 0 2.2-4.6 4.8-9.2 7.4-13.4 10.6-18.2 5.2-44.2-15-54.2-20.2-10.8-45.6-4.4-57.8 14h-0.8z m0 0" fill="#FFFFFF" p-id="11137"></path><path d="M687.8 177.4s1.2-142.4-139-166.2c-140.2-23.6-192.4 0-192.4 0s48.8 155.2 165.6 152c116.8-3.4 165.8 14.2 165.8 14.2z m0 0" fill="#6CAF14" p-id="11138" data-spm-anchor-id="a313x.search_index.0.i21.2eca3a81ZaZJ5a" class=""></path><path d="M444.6 46s169.2-1 243 131.4c0.2 0-75.6-109.6-243-131.4z m0 0" fill="#9470db" p-id="11139" data-spm-anchor-id="a313x.search_index.0.i17.2eca3a81ZaZJ5a" class=""></path><path d="M652.8 279.4s34.6-91.4 130-75.8C878.4 219.4 906 246 906 246s-69.8 88.8-143.4 60.8c-73.8-27.8-109.8-27.4-109.8-27.4z m0 0" fill="#6CAF14" p-id="11140"></path><path d="M860.2 234.6s-108-37.8-188 30.6c-0.2 0 75.4-53.6 188-30.6z m0 0" fill="#9470db" p-id="11141" data-spm-anchor-id="a313x.search_index.0.i18.2eca3a81ZaZJ5a" class=""></path></svg>